<svg xmlns="http://www.w3.org/2000/svg" width="202.41" height="202.41" viewBox="0 0 202.41 202.41">
  <g id="Group_3296" data-name="Group 3296" transform="translate(1 1)">
    <path id="Path_4453" data-name="Path 4453" d="M489.205,201.41A100.205,100.205,0,1,0,389,101.205,100.205,100.205,0,0,0,489.205,201.41Z" transform="translate(-389 -1)" fill="#fff" stroke="#b3b3b3" stroke-miterlimit="10" stroke-width="2"/>
    <g id="Group_3294" data-name="Group 3294" transform="translate(54.107 47.93)">
      <path id="Path_4455" data-name="Path 4455" d="M453.8,68.119,473.339,41.4" transform="translate(-399.687 -21.86)" fill="none" stroke="#004459" stroke-miterlimit="10" stroke-width="2"/>
      <path id="Path_4456" data-name="Path 4456" d="M443.2,45.8l8.517,18.371" transform="translate(-406.79 -18.911)" fill="none" stroke="#004459" stroke-miterlimit="10" stroke-width="2"/>
      <path id="Path_4457" data-name="Path 4457" d="M430.3,58l23.882,7.014" transform="translate(-415.434 -10.735)" fill="none" stroke="#004459" stroke-miterlimit="10" stroke-width="2"/>
      <path id="Path_4458" data-name="Path 4458" d="M439.2,79.591,452.057,66.9" transform="translate(-409.47 -4.773)" fill="none" stroke="#004459" stroke-miterlimit="10" stroke-width="2"/>
      <path id="Path_4459" data-name="Path 4459" d="M456.2,64.37,479.58,62.2" transform="translate(-398.078 -7.921)" fill="none" stroke="#004459" stroke-miterlimit="10" stroke-width="2"/>
      <path id="Path_4460" data-name="Path 4460" d="M467.462,90.245,452.6,67.7" transform="translate(-400.491 -4.236)" fill="none" stroke="#004459" stroke-miterlimit="10" stroke-width="2"/>
      <path id="Path_4461" data-name="Path 4461" d="M445.428,57.756A14.029,14.029,0,1,0,431.4,43.728,14.029,14.029,0,0,0,445.428,57.756Z" transform="translate(-414.697 -29.699)" fill="none" stroke="#e5885e" stroke-miterlimit="10" stroke-width="2"/>
      <path id="Path_4462" data-name="Path 4462" d="M484.328,80.557A14.029,14.029,0,1,0,470.3,66.529,14.029,14.029,0,0,0,484.328,80.557Z" transform="translate(-388.63 -14.42)" fill="none" stroke="#8f65a5" stroke-miterlimit="10" stroke-width="2"/>
      <path id="Path_4463" data-name="Path 4463" d="M438.928,100.256A14.029,14.029,0,1,0,424.9,86.228,14.029,14.029,0,0,0,438.928,100.256Z" transform="translate(-419.053 -1.22)" fill="none" stroke="#62bfad" stroke-miterlimit="10" stroke-width="2"/>
      <path id="Path_4464" data-name="Path 4464" d="M471.314,48.631a7.515,7.515,0,1,0-7.515-7.515A7.516,7.516,0,0,0,471.314,48.631Z" transform="translate(-392.986 -27.085)" fill="none" stroke="#62bfad" stroke-miterlimit="10" stroke-width="2"/>
      <path id="Path_4465" data-name="Path 4465" d="M466.814,95.631a7.515,7.515,0,1,0-7.515-7.515A7.516,7.516,0,0,0,466.814,95.631Z" transform="translate(-396.001 4.409)" fill="none" stroke="#e5885e" stroke-miterlimit="10" stroke-width="2"/>
      <path id="Path_4466" data-name="Path 4466" d="M428.913,67.531a7.515,7.515,0,1,0-7.515-7.515A7.515,7.515,0,0,0,428.913,67.531Z" transform="translate(-421.398 -14.42)" fill="none" stroke="#8f65a5" stroke-miterlimit="10" stroke-width="2"/>
      <path id="Path_4454" data-name="Path 4454" d="M454.352,76.006a9.853,9.853,0,1,0-9.852-9.853A9.855,9.855,0,0,0,454.352,76.006Z" transform="translate(-405.918 -11.875)" fill="none" stroke="#333" stroke-miterlimit="10" stroke-width="2"/>
    </g>
  </g>
</svg>
