<svg xmlns="http://www.w3.org/2000/svg" viewBox="0 0 51.01 51.01"><defs><style>.cls-1,.cls-2,.cls-3{fill:none;}.cls-1{stroke:#dd6d27;}.cls-2{stroke:#03a485;}.cls-3{stroke:#6a3d7e;}.cls-4{fill:#545454;}.cls-5{fill:#fff;}.cls-6{fill:#666;}</style></defs><title>avatar</title><g id="Layer_2" data-name="Layer 2"><g id="Layer_1-2" data-name="Layer 1"><g id="Group_713" data-name="Group 713"><g id="Group_712" data-name="Group 712"><g id="Group_711" data-name="Group 711"><path id="Path_1605" data-name="Path 1605" class="cls-1" d="M26,.51A25,25,0,0,1,47.4,37.57L35.57,30.74a11.35,11.35,0,0,0-4.83-15.29A11.2,11.2,0,0,0,26,14.18Z"/><path id="Path_1606" data-name="Path 1606" class="cls-2" d="M35.06,31.6,46.9,38.43a25,25,0,0,1-42.79,0L15.94,31.6a11.34,11.34,0,0,0,19.12,0Z"/><path id="Path_1607" data-name="Path 1607" class="cls-3" d="M15.44,30.74,3.61,37.57A25,25,0,0,1,25,.51V14.18A11.34,11.34,0,0,0,14.18,26a11.5,11.5,0,0,0,1.27,4.73Z"/><path id="Path_1608" data-name="Path 1608" class="cls-4" d="M23.81,22l-.2.19.23-.17Z"/><path id="Path_1609" data-name="Path 1609" class="cls-4" d="M23.81,22l-.2.19.23-.17Z"/></g><circle id="Ellipse_394" data-name="Ellipse 394" class="cls-5" cx="25.5" cy="25.51" r="24.5"/></g><path id="Path_1610" data-name="Path 1610" class="cls-6" d="M33,25.32A10.3,10.3,0,0,0,31.28,24a10.06,10.06,0,0,0-2.06-1l-.13,0a5.67,5.67,0,1,0-3.18,1h0c.29,0,.58,0,.88.05a8.35,8.35,0,0,1,3.21,1,8.5,8.5,0,0,1,4.41,7.46.66.66,0,0,1-.66.66H18.08a.67.67,0,0,1-.66-.66,8.6,8.6,0,0,1,3.51-6.89.74.74,0,0,0,.15-1h0a.74.74,0,0,0-.12-.13h0a.74.74,0,0,0-.89,0,10,10,0,0,0-4.13,8.1,2.16,2.16,0,0,0,2.16,2.16H33.75a2.17,2.17,0,0,0,2.17-2.16h0A10,10,0,0,0,33,25.32ZM25.9,22.39a4.15,4.15,0,1,1,4.16-4.14,4.15,4.15,0,0,1-4.16,4.14Z"/></g></g></g></svg>