<?xml version="1.0" encoding="utf-8"?>
<svg version="1.1" xmlns="http://www.w3.org/2000/svg" xmlns:xlink="http://www.w3.org/1999/xlink" x="0px" y="0px"
	 viewBox="0 0 346.4 304" xml:space="preserve">
<g>
	<path d="M190.1,304c-11.6,0-22.8,0-35.4,0c1.6-12.3,2.5-24.2,4.9-35.8c7.2-34,23.7-63,48.7-87c13.5-13,28.9-23.5,45.9-31.5
		c2.9-1.4,3.5-2.8,2.3-5.8c-3.1-7.8-6.1-15.7-9.3-24.1c33.2,4.2,65.8,8.3,99.2,12.5c-21.2,26-42,51.6-63.3,77.7
		c-4.1-10.1-7.9-19.6-11.7-29C239.8,192.5,191.9,233.6,190.1,304z"/>
	<path d="M147.4,255c-14.3-34-38.3-59.1-71.9-74.8c-4,10-7.8,19.3-12,29.6c-21.3-26-42.1-51.4-63.5-77.6
		c33.5-4.2,66.2-8.3,99.6-12.5c-3.9,9.7-7.6,18.8-11.3,28c30.9,13.9,55.6,34.5,74.2,62.3c1,1.5,1.5,2.2,2,2.9
		C154.7,230,147.9,254.2,147.4,255z"/>
	<path d="M173.4,0c16.3,29.6,32.1,58.3,48.4,87.8c-10.5,0-20.3,0-30.4,0c-0.2,1.9-0.5,3.2-0.5,4.4c-0.3,15.8-0.6,31.6-0.7,47.4
		c0,11.6,0.3,37.8,0.3,37.8s-1.2,1.6-2.5,3.4c-4.6,6.1-9.5,11.9-14.7,18.3c-3.7-4.7-7.4-9.5-11.3-14c-2.6-3.1-6-7.6-6-7.6
		s-0.1-6.7-0.1-9.7c0.6-25.5,0.2-51.1,0.1-76.6c0-0.8-0.1-1.6-0.3-2.8c-10.1,0-20,0-31.1,0C141,58.6,156.9,29.8,173.4,0z"/>
</g>
</svg>
