<svg xmlns="http://www.w3.org/2000/svg" width="23.998" height="24" viewBox="0 0 23.998 24"><g transform="translate(-0.018)"><g transform="translate(0.018)"><path d="M23.4,7.553a2.112,2.112,0,0,0-2.983,0L18.3,9.67V4.1a2.1,2.1,0,0,0-.618-1.492L15.693.618A2.1,2.1,0,0,0,14.2,0H2.127A2.112,2.112,0,0,0,.018,2.109V21.891A2.112,2.112,0,0,0,2.127,24H16.19A2.112,2.112,0,0,0,18.3,21.891V15.639l5.1-5.1A2.108,2.108,0,0,0,23.4,7.553ZM14.081,1.406a.767.767,0,0,1,.618.206L16.687,3.6a.767.767,0,0,1,.206.618H14.081Zm2.812,20.484a.7.7,0,0,1-.7.7H2.127a.7.7,0,0,1-.7-.7V2.109a.7.7,0,0,1,.7-.7H12.674V4.922a.7.7,0,0,0,.7.7h3.516v5.453l-2.075,2.076-.994.994a.7.7,0,0,0-.17.275l-.994,2.983a.7.7,0,0,0,.889.889l2.983-.994a.7.7,0,0,0,.275-.17l.085-.085Zm-1.577-7.246.994.994-.38.38-1.492.5.5-1.492Zm1.989,0-.994-.994,3.38-3.383.994.994Zm5.1-5.1-.725.725-.994-.994.725-.726a.7.7,0,1,1,.994.995Z" transform="translate(-0.018 0)"/></g><g transform="translate(2.556 7.074)"><path d="M69.536,150H60.653a.635.635,0,1,0,0,1.269h8.883a.635.635,0,1,0,0-1.269Z" transform="translate(-60.018 -150)"/></g><g transform="translate(2.556 9.904)"><path d="M67,210H60.653a.635.635,0,1,0,0,1.269H67A.635.635,0,1,0,67,210Z" transform="translate(-60.018 -210)"/></g><g transform="translate(2.556 12.733)"><path d="M67,270H60.653a.635.635,0,1,0,0,1.269H67A.635.635,0,1,0,67,270Z" transform="translate(-60.018 -270)"/></g><g transform="translate(2.556 15.563)"><path d="M67,330H60.653a.635.635,0,0,0,0,1.269H67A.635.635,0,0,0,67,330Z" transform="translate(-60.018 -330)"/></g><g transform="translate(8.708 20.193)"><path d="M184.46,422h-3.807a.635.635,0,0,0,0,1.269h3.807a.635.635,0,1,0,0-1.269Z" transform="translate(-180.018 -422)"/></g></g></svg>