<svg xmlns="http://www.w3.org/2000/svg" width="24.1" height="24" viewBox="0 0 24.1 24"><defs><style>.a{fill:none;}</style></defs><g transform="translate(0.05)"><path d="M15.5,7a6.116,6.116,0,0,0-6-5.1H5.2V.8A.622.622,0,0,0,4.8.2a.878.878,0,0,0-.7.1l-4,4a.746.746,0,0,0,0,.9l4,4a.592.592,0,0,0,.7.1.675.675,0,0,0,.4-.6V7.8H9.5a.215.215,0,0,1,.2.2V23.2a.645.645,0,0,0,.6.6H15a.645.645,0,0,0,.6-.6V13.1a.215.215,0,0,1,.2-.2h3v1a.622.622,0,0,0,.4.6.878.878,0,0,0,.7-.1l4-4a.746.746,0,0,0,0-.9l-4-4a.592.592,0,0,0-.7-.1.675.675,0,0,0-.4.6V7Zm-6-.4H4.6a.645.645,0,0,0-.6.6v.2L1.5,4.8,4,2.3v.2a.645.645,0,0,0,.6.6H9.5a4.838,4.838,0,0,1,4.8,4.1,5.81,5.81,0,0,0-3.4,2.3V8A1.43,1.43,0,0,0,9.5,6.6ZM20,12.5v-.2a.645.645,0,0,0-.6-.6H15.8a1.43,1.43,0,0,0-1.4,1.4v9.5H10.9V13.1a4.908,4.908,0,0,1,4.9-4.9h3.6a.645.645,0,0,0,.6-.6V7.3l2.6,2.6Z"/><path class="a" d="M0,0H24V24H0Z"/></g></svg>