<svg xmlns="http://www.w3.org/2000/svg" width="24" height="24" viewBox="0 0 24 24">
    <path d="M11.6,0h.8a3.4,3.4,0,0,1,2.8,2.7.215.215,0,0,0,.2.2h3.9a2.656,2.656,0,0,1,2.4,2.2,2.818,2.818,0,0,1-1.4,3.1c-.3,0-.4.2-.3.4V21.2A2.63,2.63,0,0,1,17.4,24H6.8a2.016,2.016,0,0,1-1.1-.3,2.627,2.627,0,0,1-1.6-2.6C4,17,4,12.8,4,8.5c0-.1,0-.3-.2-.3A2.831,2.831,0,0,1,2.5,4.7,2.7,2.7,0,0,1,5.2,2.9H8.6c.1,0,.2,0,.3-.2A3.137,3.137,0,0,1,10.6.4,4.179,4.179,0,0,1,11.6,0ZM5.3,8.5V21.1a1.456,1.456,0,0,0,1.3,1.6h11a1.4,1.4,0,0,0,1.1-1.5V8.5ZM12,4.2H5.1a1.357,1.357,0,0,0-1.3.7,1.535,1.535,0,0,0,0,1.6,1.42,1.42,0,0,0,1.4.7H18.8a1.538,1.538,0,0,0,1.5-1.5,1.268,1.268,0,0,0-.1-.6,1.539,1.539,0,0,0-1.5-1Zm1.9-1.3a1.959,1.959,0,0,0-2.3-1.5,2.073,2.073,0,0,0-1.5,1.5Z"/>
    <path d="M11.4,16.7V13.1c0-.4.2-.7.6-.7a.367.367,0,0,1,.3.1.842.842,0,0,1,.4.7v7.2c0,.4-.2.7-.6.7h-.3a.569.569,0,0,1-.4-.7C11.3,19.1,11.4,17.9,11.4,16.7Z"/>
    <path d="M7.9,16.7V13.1c0-.4.2-.7.6-.7h.1a.634.634,0,0,1,.6.5v7.3a.6.6,0,0,1-.1.4.569.569,0,0,1-.7.4c-.3,0-.5-.3-.6-.6v-.3Z"/>
    <path d="M16.1,16.7v3.6c0,.4-.2.7-.6.7h-.2a.664.664,0,0,1-.4-.5V13c0-.4.3-.6.7-.6a.645.645,0,0,1,.6.6v2.7Z"/>
</svg>