<svg xmlns="http://www.w3.org/2000/svg" width="17.318" height="20.517" viewBox="0 0 17.318 20.517">
    <g transform="translate(0.25 0.25)">
        <g transform="translate(0 0)">
            <path d="M55.814,544.879s0-.012,0-.016,0-.012,0-.021,0-.012,0-.016a.031.031,0,0,0-.008-.016s0-.012-.008-.016,0-.012-.008-.016,0-.012-.008-.016a.085.085,0,0,0-.016-.025s0-.008-.008-.012a.09.09,0,0,0-.016-.021l-3.376-4.189c-.008-.012-.021-.021-.029-.033s0,0-.008,0l-.025-.025s-.008,0-.012-.008-.016-.012-.025-.016-.008,0-.012-.008l-.025-.012s-.008,0-.012-.008a.193.193,0,0,0-.029-.012s-.008,0-.012,0-.021,0-.029-.008-.008,0-.012,0a.091.091,0,0,0-.033,0h-.012c-.016,0-.029,0-.045,0H41.112a.411.411,0,0,0-.41.41v1.686H39.41a.411.411,0,0,0-.41.41v17.1a.411.411,0,0,0,.41.41H53.734a.411.411,0,0,0,.41-.41v-1.686h1.263a.411.411,0,0,0,.41-.41V544.9A.052.052,0,0,0,55.814,544.879Zm-3.372-2.95,2.108,2.618H52.442Zm-.7,3.29,1.132,1.395h-2.1v-2.593l.919,1.132A.412.412,0,0,0,51.741,545.22Zm-10.218-4.041h10.1v2.589l-.943-1.161c-.008-.012-.021-.021-.029-.033l-.008-.008c-.008-.008-.016-.012-.025-.021s-.008,0-.012-.008-.016-.012-.025-.016-.008,0-.012-.008l-.025-.012a.015.015,0,0,0-.012,0l-.029-.012s-.008,0-.012,0-.021,0-.029-.008-.008,0-.012,0a.089.089,0,0,0-.033,0H50.4c-.016,0-.029,0-.045,0H41.523Zm-1.7,18.38V543.275H49.948v3.75a.411.411,0,0,0,.41.41h2.966v12.124H39.82ZM55,557.466h-.853v-10.5a.052.052,0,0,0,0-.025s0-.012,0-.016,0-.012,0-.021,0-.012,0-.016a.031.031,0,0,0-.008-.016s0-.012-.008-.016,0-.012-.008-.016,0-.012-.008-.016a.09.09,0,0,0-.012-.021s0-.008-.008-.008-.012-.021-.021-.029l-1.132-1.395H55Z" transform="translate(-39 -540.362)"/>
            <path d="M120.1,753.7H111.71a.41.41,0,0,0,0,.821H120.1a.41.41,0,0,0,0-.821Z" transform="translate(-108.334 -744.953)"/>
            <path d="M120.1,814.716H111.71a.41.41,0,0,0,0,.821H120.1a.41.41,0,0,0,0-.821Z" transform="translate(-108.334 -803.462)"/>
            <path d="M120.1,875.729H111.71a.41.41,0,0,0,0,.821H120.1a.41.41,0,0,0,0-.821Z" transform="translate(-108.334 -861.972)"/>
            <path d="M120.1,936.741H111.71a.41.41,0,0,0,0,.821H120.1a.41.41,0,0,0,0-.821Z" transform="translate(-108.334 -920.482)"/>
        </g>
    </g>
</svg>