<?xml version="1.0" encoding="utf-8"?>
<!-- Generator: Adobe Illustrator 24.0.1, SVG Export Plug-In . SVG Version: 6.00 Build 0)  -->
<svg version="1.1" id="Layer_1" xmlns="http://www.w3.org/2000/svg" xmlns:xlink="http://www.w3.org/1999/xlink" x="0px" y="0px"
	 viewBox="0 0 24 24" style="enable-background:new 0 0 24 24;" xml:space="preserve">
<g id="Layer_2_1_">
	<g id="Layer_1-2">
		<path d="M5.9,5.9c-0.3,0-0.5,0.2-0.5,0.5s0.2,0.5,0.5,0.5s0.5-0.2,0.5-0.5l0,0C6.4,6.1,6.2,5.9,5.9,5.9z"/>
		<path d="M10.1,14.6H8.7v-1.4c0-0.3-0.2-0.5-0.5-0.5s-0.4,0.2-0.4,0.5v1.4H6.4c-0.3,0-0.5,0.2-0.5,0.5s0.2,0.5,0.5,0.5l0,0h1.4v1.3
			c0,0.3,0.2,0.5,0.5,0.5s0.5-0.2,0.5-0.5v-1.4h1.4c0.3,0,0.5-0.2,0.5-0.5C10.6,14.8,10.4,14.6,10.1,14.6L10.1,14.6L10.1,14.6z"/>
		<path d="M22.8,15c-1-1.8-3.3-2.4-5.1-1.4l0,0l-1.9,1.1v-4.1c0-0.5-0.2-1-0.5-1.4l-2.3-3V4.9c0.6-0.2,0.9-0.7,0.9-1.3V1.4
			c0-0.8-0.6-1.4-1.4-1.4H4C3.3,0,2.7,0.6,2.7,1.4v2.2c0,0.6,0.4,1.1,0.9,1.3v1.3L1.3,9.4C1,9.8,0.8,10.3,0.8,10.8v9.1
			c0,1.3,1,2.4,2.3,2.4l0,0h7.5c1.1,1.8,3.3,2.3,5.1,1.3l5.7-3.3C23.2,19.1,23.8,16.8,22.8,15z M3.6,1.4C3.6,1.2,3.8,1,4,1l0,0h8.4
			c0.3,0,0.5,0.2,0.5,0.5l0,0v2.2c0,0.3-0.2,0.5-0.5,0.5l0,0H4C3.8,4,3.6,3.8,3.6,3.6l0,0V1.4z M2,9.9l2.4-3.2
			c0.1-0.1,0.1-0.2,0.1-0.3V5H12v0.9H7.8c-0.3,0-0.4,0.3-0.4,0.5s0.2,0.4,0.4,0.4h4.4l2.3,3.1c0.1,0.2,0.2,0.4,0.3,0.7h-13
			C1.8,10.4,1.9,10.1,2,9.9z M3.2,21.1c-0.8,0-1.4-0.6-1.4-1.4v-0.5h8.5c-0.2,0.6-0.2,1.3,0,1.9H3.2z M10.6,18.3H1.8v-6.9h13v3.8
			L12,16.9C11.4,17.2,10.9,17.7,10.6,18.3z M15.2,22.6c-1.4,0.7-3.1,0.2-3.8-1.1c-0.7-1.3-0.3-3,1-3.7l2.5-1.5l2.8,4.9L15.2,22.6z
			 M20.9,19.3l-2.3,1.3l-2.8-4.9l2.3-1.3c1.3-0.8,3.1-0.4,3.9,0.9s0.4,3.1-0.9,3.9C21,19.3,21,19.3,20.9,19.3L20.9,19.3z"/>
	</g>
</g>
</svg>
