<svg xmlns="http://www.w3.org/2000/svg" width="24.1" height="24" viewBox="0 0 24.1 24">
    <defs>
        <style>.a{fill:none;}</style>
    </defs>
    <path d="M23.6,16.8a.43.43,0,0,0,.4-.4V13.2a.43.43,0,0,0-.4-.4H22.2l-2.4-2.4h.6a.43.43,0,0,0,.4-.4V6.8a.43.43,0,0,0-.4-.4H18.9L13.7,4c.2-.1.3-.2.3-.4V.4a.43.43,0,0,0-.4-.4H10.4a.43.43,0,0,0-.4.4V3.6c0,.2.1.3.3.4L5.1,6.4H3.6a.43.43,0,0,0-.4.4V10a.43.43,0,0,0,.4.4h.6L1.8,12.8H.4a.43.43,0,0,0-.4.4v3.2a.43.43,0,0,0,.4.4H1.6V20H.4a.43.43,0,0,0-.4.4v3.2a.43.43,0,0,0,.4.4H3.6a.43.43,0,0,0,.4-.4V20.4a.43.43,0,0,0-.4-.4H2.4V16.8H3.6a.43.43,0,0,0,.4-.4V13.2a.43.43,0,0,0-.4-.4H3l2.3-2.3,2.5,2.3h-1a.43.43,0,0,0-.4.4v3.2a.43.43,0,0,0,.4.4H8V20H6.8a.43.43,0,0,0-.4.4v3.2a.43.43,0,0,0,.4.4H10a.43.43,0,0,0,.4-.4V20.4A.43.43,0,0,0,10,20H8.8V16.8H10a.43.43,0,0,0,.4-.4V13.2a.43.43,0,0,0-.4-.4H9L6.3,10.4h.5a.43.43,0,0,0,.4-.4V6.8c0-.2-.1-.3-.3-.4L12,4l5.1,2.4c-.2.1-.3.2-.3.4V10a.43.43,0,0,0,.4.4h.5L15,12.8H14a.43.43,0,0,0-.4.4v3.2a.43.43,0,0,0,.4.4h1.2V20H14a.43.43,0,0,0-.4.4v3.2a.43.43,0,0,0,.4.4h3.2a.43.43,0,0,0,.4-.4V20.4a.43.43,0,0,0-.4-.4H16V16.8h1.2a.43.43,0,0,0,.4-.4V13.2a.43.43,0,0,0-.4-.4h-.9l2.5-2.3,2.3,2.3h-.6a.43.43,0,0,0-.4.4v3.2a.43.43,0,0,0,.4.4h1.2V20H20.5a.43.43,0,0,0-.4.4v3.2a.43.43,0,0,0,.4.4h3.2a.43.43,0,0,0,.4-.4V20.4a.43.43,0,0,0-.4-.4H22.5V16.8ZM3.2,23.2H.8V20.8H3.2Zm0-7.2H.8V13.6H3.2Zm6.4,7.2H7.2V20.8H9.6Zm0-7.2H7.2V13.6H9.6ZM10.8.8h2.4V3.2H10.8V.8ZM6.4,9.6H4V7.2H6.4ZM17.6,7.2H20V9.6H17.6Zm-.8,16H14.4V20.8h2.4Zm0-7.2H14.4V13.6h2.4Zm6.4,7.2H20.8V20.8h2.4Zm-2.4-9.6h2.4V16H20.8Z"/>
</svg>