<svg xmlns="http://www.w3.org/2000/svg" width="24" height="24.003" viewBox="0 0 24 24.003">
    <path d="M24,12A11.991,11.991,0,0,0,1.2,6.8a1.079,1.079,0,0,0,0,1.1.792.792,0,0,0,.8.5,1.456,1.456,0,0,0,.9-.6c.5-.8,1-1.6,1.6-2.4a9.89,9.89,0,0,1,14.1-.9,9.99,9.99,0,0,1-13.2,15A9.3,9.3,0,0,1,3,16.3c-.3-.7-.7-.9-1.2-.8A1.037,1.037,0,0,0,1,16.7c0,.1.1.3.1.4a11.575,11.575,0,0,0,5.2,5.5,11.959,11.959,0,0,0,16.2-5,10.633,10.633,0,0,0,1.2-3.4A5.583,5.583,0,0,0,24,12Z"/><path class="a" d="M13.5,11H1.1A.975.975,0,0,0,0,12a.9.9,0,0,0,.9.9H13.5V13c-.6.5-1.1,1.1-1.7,1.7a.948.948,0,0,0-.2,1.3.55.55,0,0,0,.5.3,1.163,1.163,0,0,0,1-.2c1.2-1.1,2.4-2.3,3.5-3.5a.853.853,0,0,0,0-1.3h0L13.1,7.8a.935.935,0,0,0-1.3-.1h0a.967.967,0,0,0,0,1.4h0c.5.6,1.1,1.1,1.7,1.7Z"/>
</svg>