<?xml version="1.0" encoding="utf-8"?>
<!-- Generator: Adobe Illustrator 24.0.1, SVG Export Plug-In . SVG Version: 6.00 Build 0)  -->
<svg version="1.1" id="Layer_1" xmlns="http://www.w3.org/2000/svg" xmlns:xlink="http://www.w3.org/1999/xlink" x="0px" y="0px"
	 viewBox="0 0 100 100" style="enable-background:new 0 0 100 100;" xml:space="preserve">
<style type="text/css">
	.st0{fill:#DD6D27;}
	.st1{fill:#03A485;}
	.st2{fill:#6A3D7E;}
	.st3{fill:#545454;}
	.st4{fill:#666666;}
</style>
<g id="Group_703_29_" transform="translate(-2319.449 -1488.841)">
	<g id="Group_702_29_">
		<path id="Path_1580_29_" class="st0" d="M2369.4,1489.8c27.1,0,49,21.9,49,49c0,8.6-2.3,17.1-6.6,24.5l-24.4-14.1
			c5.8-10,2.3-22.7-7.6-28.4c-3.2-1.8-6.8-2.8-10.4-2.8L2369.4,1489.8z"/>
		<path id="Path_1581_29_" class="st1" d="M2411.9,1563.3c-13.5,23.4-43.5,31.5-66.9,17.9c-7.4-4.3-13.6-10.5-17.9-17.9l24.4-14.1
			c5.8,10,18.5,13.4,28.4,7.6c3.2-1.8,5.8-4.5,7.6-7.6L2411.9,1563.3z"/>
		<path id="Path_1582_29_" class="st2" d="M2327,1563.3c-13.5-23.4-5.5-53.4,17.9-66.9c7.4-4.3,15.9-6.6,24.5-6.6v28.2
			c-11.5,0-20.8,9.3-20.8,20.8c0,3.7,1,7.2,2.8,10.4L2327,1563.3z"/>
	</g>
	<path id="Path_1583_29_" class="st3" d="M2366.2,1532.1c-0.1,0.1-0.2,0.2-0.4,0.4C2366,1532.4,2366.1,1532.3,2366.2,1532.1
		C2366.2,1532.2,2366.2,1532.2,2366.2,1532.1z"/>
	<path id="Path_1584_29_" class="st3" d="M2366.2,1532.1c-0.1,0.1-0.2,0.2-0.4,0.4C2366,1532.4,2366.1,1532.3,2366.2,1532.1
		C2366.2,1532.2,2366.2,1532.2,2366.2,1532.1z"/>
	<path id="Path_1585_29_" class="st4" d="M2384.1,1537.7c-0.2-2.8-1.3-5.5-3-7.7h0c-0.1-0.1-0.2-0.2-0.2-0.3
		c-0.1-0.1-0.2-0.3-0.3-0.4c-0.1-0.1-0.2-0.2-0.3-0.3c0,0,0,0-0.1-0.1l-0.1-0.1c-0.1-0.1-0.2-0.2-0.3-0.3s-0.2-0.2-0.3-0.3
		s-0.3-0.2-0.4-0.4c-6.2-5.3-15.4-4.6-20.7,1.6c-4.1,4.8-4.7,11.6-1.5,17c0.1,0.1,0.2,0.3,0.2,0.4c0,0,0,0.1,0.1,0.1
		c0.1,0.1,0.2,0.3,0.3,0.4c0.2,0.3,0.4,0.6,0.7,0.9c0.4,0.5,0.9,1.1,1.4,1.5c0.1,0.1,0.2,0.2,0.3,0.3c0.2,0.2,0.5,0.4,0.8,0.6
		c0.1,0.1,0.3,0.2,0.4,0.3c1.4,1,3.1,1.8,4.8,2.2l0.1,0c0.2,0.1,0.5,0.1,0.7,0.2l0,0c0.2,0,0.4,0.1,0.6,0.1c0,0,0.1,0,0.1,0
		c0.7,0.1,1.5,0.2,2.2,0.2c4.9,0,9.5-2.5,12.2-6.5c0.3-0.4,0.6-0.9,0.8-1.3c1.1-2,1.6-4.2,1.7-6.5c0-0.1,0-0.2,0-0.3
		C2384.1,1538.5,2384.1,1538.1,2384.1,1537.7z M2381.5,1533.5c0.6,1.3,0.9,2.6,1.1,4c-0.6-0.1-1.2-0.2-1.7-0.3
		C2381,1536,2381.2,1534.8,2381.5,1533.5L2381.5,1533.5z M2379.6,1530.5c0.3,0.3,0.5,0.6,0.7,1c-0.3,1.9-0.7,3.7-1,5.5
		c-1.1-0.2-2.1-0.5-3.1-0.8c-1.1-0.3-2.1-0.8-3.1-1.2C2375,1533,2377.2,1531.5,2379.6,1530.5L2379.6,1530.5z M2378.4,1529.3
		c0.1,0,0.3,0,0.4,0c-0.1,0-0.2,0.1-0.3,0.1c-2.6,1.1-4.9,2.8-6.8,4.9c-0.9-0.4-1.7-0.9-2.4-1.3c2.2-1.7,4.8-2.9,7.5-3.6
		C2377.3,1529.3,2377.8,1529.3,2378.4,1529.3L2378.4,1529.3z M2368,1534c0.7,0.4,1.7,0.9,2.7,1.5c-1.2,1.5-2.3,3.2-3.1,5
		c-1.1-0.7-2.1-1.5-3.2-2.3C2365.4,1536.6,2366.6,1535.2,2368,1534L2368,1534z M2366.4,1533.5c-1.2,1.1-2.2,2.4-3.1,3.8
		c-0.2-0.1-0.3-0.3-0.5-0.4C2363.9,1535.6,2365,1534.4,2366.4,1533.5z M2366.4,1531.6c-4.4,2.9-7.7,7.4-9.1,12.5
		c-2.9-6.7,0.2-14.5,6.9-17.3c4.1-1.7,8.7-1.3,12.4,1.1c0,0,0,0,0,0l-0.3,0C2372.9,1528.6,2369.5,1529.9,2366.4,1531.6
		L2366.4,1531.6z M2359.5,1547.7c-0.5-0.5-0.9-1.1-1.2-1.6c0.6-2.9,1.8-5.7,3.6-8.1c0.2,0.2,0.4,0.3,0.6,0.5
		C2360.9,1541.4,2359.9,1544.5,2359.5,1547.7L2359.5,1547.7z M2365.5,1550.4c0,0.4,0,0.8,0,1.2c-1.7-0.5-3.2-1.4-4.6-2.5
		c0.2-3.3,1.1-6.6,2.7-9.5c1.1,0.9,2.2,1.6,3.4,2.4C2366,1544.6,2365.5,1547.5,2365.5,1550.4L2365.5,1550.4z M2377.6,1549.2
		c-2.3,1.9-5.2,2.9-8.2,2.9c-0.8,0-1.6-0.1-2.3-0.2c0-0.5,0-1,0-1.5c0-2.6,0.4-5.3,1.3-7.7c0.7,0.4,1.5,0.8,2.2,1.1
		c2.4,0.9,4.9,1.7,7.4,2.4C2377.9,1547.2,2377.7,1548.3,2377.6,1549.2L2377.6,1549.2z M2378.2,1544.6c-2.4-0.6-4.8-1.4-7.1-2.3
		c-0.8-0.3-1.5-0.7-2.2-1.1c0.8-1.9,1.9-3.6,3.2-5.1c1.2,0.6,2.4,1.1,3.7,1.5c0.9,0.3,2,0.6,3.3,0.9
		C2378.8,1540.6,2378.5,1542.7,2378.2,1544.6L2378.2,1544.6z M2379.3,1547.6c0-0.4,0.1-0.7,0.1-1.1l0.6,0.2
		C2379.8,1547,2379.6,1547.3,2379.3,1547.6L2379.3,1547.6z M2380.9,1545.3c-0.4-0.1-0.8-0.2-1.3-0.3c0.3-1.9,0.6-4.1,0.9-6.3
		c0.7,0.1,1.3,0.2,2,0.3C2382.6,1541.2,2382,1543.4,2380.9,1545.3L2380.9,1545.3z"/>
</g>
</svg>
