<svg xmlns="http://www.w3.org/2000/svg" width="182.409" height="25" viewBox="0 0 182.409 25">
  <g id="Group_2685" data-name="Group 2685" transform="translate(-4644.959 -31.782)">
    <path id="Path_4328" data-name="Path 4328" d="M4780.222,55.177a16.854,16.854,0,0,1-6.91.878c-6.549-.706-8.833-5.351-8.285-10.757a12.638,12.638,0,0,1,11.273-11.38c2.387-.307,5.273-.033,6.779.809l-1.252,3.756a10.062,10.062,0,0,0-6.567-.29c-2.207.672-5.177,3.177-5.274,7.881-.131,4.486,2.644,6.393,6.683,6.052a10.186,10.186,0,0,0,3.168-.673Z" fill="#666"/>
    <path id="Path_4329" data-name="Path 4329" d="M4803.225,40.088h4.013l-.289,3.211h.1a7.254,7.254,0,0,1,3.08-3.142,5.348,5.348,0,0,1,2.795-.39l-.9,4.5a4.516,4.516,0,0,0-2.471.328,5.014,5.014,0,0,0-2.419,2.756c-.8,1.9-1.852,8.441-1.852,8.441h-4.623S4803.212,41.46,4803.225,40.088Z" fill="#666"/>
    <path id="Path_4330" data-name="Path 4330" d="M4656.092,33.942c4.254,0,7.411,1.529,7.411,5.55a7.512,7.512,0,0,1-5.517,7.544l3.357,8.574h-4.786l-2.791-7.943h-2.659l-1.562,7.943h-4.586l4.354-21.668Zm-1.961,10.1c3.224,0,4.886-1.529,4.886-3.889,0-1.827-1.3-2.591-3.623-2.591H4653.1l-1.263,6.48Z" fill="#666"/>
    <path id="Path_4331" data-name="Path 4331" d="M4672.675,38.728c3.922,0,5.384,2.758,5.384,6.181a9.679,9.679,0,0,1-.864,3.755h-9.372c-.133,2.759,1.529,3.922,3.689,3.922a6.072,6.072,0,0,0,3.057-1.163l1.6,2.858a10.343,10.343,0,0,1-5.916,1.728c-3.988,0-6.746-2.659-6.746-7.046C4663.5,42.849,4668.288,38.728,4672.675,38.728Zm1.5,7.145a4.425,4.425,0,0,0,.166-1.23c0-1.329-.565-2.426-2.227-2.426-1.562,0-3.19,1.23-3.921,3.656Z" fill="#666"/>
    <path id="Path_4332" data-name="Path 4332" d="M4688.289,38.728a3.989,3.989,0,0,1,3.589,2.16h.066l.731-1.762h3.623l-3.29,16.484h-3.689l.066-2.16h-.1a7.6,7.6,0,0,1-5.152,2.559c-2.891,0-4.652-2.16-4.652-6.049C4679.482,43.679,4683.736,38.728,4688.289,38.728Zm1.362,11.133,1.163-5.85a2.512,2.512,0,0,0-2.193-1.561c-2.293,0-4.42,2.991-4.42,6.945,0,1.994.731,2.892,1.928,2.892A4.111,4.111,0,0,0,4689.651,49.861Z" fill="#666"/>
    <path id="Path_4333" data-name="Path 4333" d="M4706.4,38.728a5.655,5.655,0,0,1,4.42,2.027l-2.525,2.692a2.8,2.8,0,0,0-2.194-1.064c-2.625,0-4.752,3.058-4.752,6.747,0,1.994.931,3.223,2.792,3.223a4.2,4.2,0,0,0,2.625-1.063l1.894,2.791a8.689,8.689,0,0,1-5.516,1.928c-3.656,0-6.447-2.493-6.447-6.78C4696.7,43.513,4700.987,38.728,4706.4,38.728Z" fill="#666"/>
    <path id="Path_4334" data-name="Path 4334" d="M4714.376,42.682h-2.194l.665-3.356,2.426-.2,1.4-4.32h3.822l-.831,4.32h3.755l-.7,3.556h-3.855l-1.429,7.079a6.316,6.316,0,0,0-.066,1.1c0,1.063.532,1.595,1.695,1.595a3.19,3.19,0,0,0,1.362-.366l.8,3.191a10.543,10.543,0,0,1-3.855.731c-3.323,0-4.686-1.828-4.686-4.354a11.3,11.3,0,0,1,.266-2.094Z" fill="#666"/>
    <path id="Path_4335" data-name="Path 4335" d="M4726.5,39.126h4.52l-3.29,16.484h-4.553Zm.665-4.652A2.776,2.776,0,0,1,4730,31.782a2.255,2.255,0,0,1,2.459,2.193,2.692,2.692,0,0,1-2.825,2.692A2.253,2.253,0,0,1,4727.17,34.474Z" fill="#666"/>
    <path id="Path_4336" data-name="Path 4336" d="M4733.327,39.126h4.52l.565,8.076c.133,1.628.166,3.323.2,5.018h.132c.731-1.695,1.429-3.323,2.194-5.018l3.689-8.076h4.453l-8.408,16.484h-5.251Z" fill="#666"/>
    <path id="Path_4337" data-name="Path 4337" d="M4757.411,38.728c3.922,0,5.384,2.758,5.384,6.181a9.708,9.708,0,0,1-.864,3.755h-9.372c-.133,2.759,1.529,3.922,3.689,3.922a6.074,6.074,0,0,0,3.057-1.163l1.6,2.858a10.343,10.343,0,0,1-5.916,1.728c-3.988,0-6.746-2.659-6.746-7.046C4748.239,42.849,4753.024,38.728,4757.411,38.728Zm1.5,7.145a4.447,4.447,0,0,0,.165-1.23c0-1.329-.564-2.426-2.226-2.426-1.562,0-3.19,1.23-3.921,3.656Z" fill="#666"/>
    <g id="Group_2684" data-name="Group 2684">
      <g id="Group_2683" data-name="Group 2683">
        <path id="Path_4338" data-name="Path 4338" d="M4799.484,49.839a8.828,8.828,0,0,0-.174-4.473l-.011-.036a8.925,8.925,0,0,0-1.262-2.549.729.729,0,0,0-.139-.194,8.8,8.8,0,0,0-3.648-2.822c-.012,0-.022-.012-.034-.015-.035-.014-.069-.031-.1-.045a8.821,8.821,0,0,0-1.65-.476l-.007,0h-.008a8.81,8.81,0,0,0-1.15-.131h-.023a8.887,8.887,0,0,0-3.892.695l-.039.016a8.928,8.928,0,0,0-1.377.745l-.041.026a8.839,8.839,0,0,0-2.053,1.907.272.272,0,0,0-.024.032,8.76,8.76,0,0,0-1.764,4.142l0,.03a8.839,8.839,0,0,0,.523,4.462l.022.056a8.914,8.914,0,0,0,1.4,2.372l0,0a8.787,8.787,0,0,0,3.544,2.578h0a8.955,8.955,0,0,0,1.139.363l.021.007h0a8.834,8.834,0,0,0,5.814-.567l.07-.032a8.886,8.886,0,0,0,2.695-1.964l.026-.028a8.712,8.712,0,0,0,2.128-4.049A.313.313,0,0,0,4799.484,49.839Zm-9.7,6.176c-.186-.024-.372-.057-.557-.1l.332-1.544a16.921,16.921,0,0,0,2.174.34A8.6,8.6,0,0,1,4789.8,56C4789.791,56.005,4789.787,56.012,4789.78,56.015Zm-6.046-7.572a12.657,12.657,0,0,0,1.547.987,11.419,11.419,0,0,0,.358,2.892A13.415,13.415,0,0,1,4784,51.4,10.927,10.927,0,0,1,4783.734,48.443Zm-.468-3.522a8.137,8.137,0,0,1,.913-1.684c.064.067.142.144.228.226a11.077,11.077,0,0,0-1.217,3.477c0,.034-.009.068-.014.1-.161-.163-.286-.3-.379-.418A8.157,8.157,0,0,1,4783.266,44.921Zm.614,2.134a10.357,10.357,0,0,1,1.065-3.12,11.508,11.508,0,0,0,1.29.9,10.883,10.883,0,0,0-.785,2.6c-.069.414-.113.815-.14,1.2a11.277,11.277,0,0,1-1.508-1.037C4783.824,47.428,4783.849,47.243,4783.88,47.055Zm2.7-5.493a13.688,13.688,0,0,0,1.224.659,13,13,0,0,0-1.257,1.976,11.2,11.2,0,0,1-1.242-.885A13.085,13.085,0,0,1,4786.575,41.562Zm5.387-1.705-.617,2.869a16.807,16.807,0,0,1-2.406-.765,14.032,14.032,0,0,1,2.378-2.167Q4791.64,39.812,4791.962,39.857Zm-3.2,2.792a17.7,17.7,0,0,0,2.421.759l.012,0-.538,2.5a15.488,15.488,0,0,1-3.505-1.359,12.58,12.58,0,0,1,1.316-2.03C4788.569,42.564,4788.664,42.609,4788.765,42.649Zm-2.625,4.91a10.059,10.059,0,0,1,.71-2.365,15,15,0,0,0,1.568.728,17.344,17.344,0,0,0,2.094.675l-.812,3.775a18.084,18.084,0,0,1-3.708-1.356A11.513,11.513,0,0,1,4786.14,47.559Zm5.054-.8a12.459,12.459,0,0,0,4.279.183,10.142,10.142,0,0,1-.436,2.689,11.26,11.26,0,0,1-.468,1.235,14.455,14.455,0,0,1-4.188-.325Zm4.512,3.078a10.976,10.976,0,0,0,.476-3.013,10.49,10.49,0,0,0,1.862-.555,10.521,10.521,0,0,1-.41,3.909l0,.016a10.207,10.207,0,0,1-2.255.584C4795.493,50.473,4795.6,50.161,4795.706,49.832Zm1.765-6.527a13.822,13.822,0,0,1,.495,2.229,9.727,9.727,0,0,1-1.79.563,13.274,13.274,0,0,0-.329-2.442A11.372,11.372,0,0,0,4797.471,43.305Zm-2,2.92a11.733,11.733,0,0,1-4.13-.155l.542-2.517a12.483,12.483,0,0,0,3.249.179A12.756,12.756,0,0,1,4795.471,46.225Zm-9.482,3.569c.329.158.681.313,1.06.463a20.225,20.225,0,0,0,2.5.8l-.532,2.473a19.459,19.459,0,0,1-2.536-.833A10.707,10.707,0,0,1,4785.989,49.794Zm3.713,3.9.532-2.473a15.533,15.533,0,0,0,3.983.373,10.738,10.738,0,0,1-1.792,2.469A15.8,15.8,0,0,1,4789.7,53.693Zm5.34-2.161a11.362,11.362,0,0,0,2.281-.478,11.018,11.018,0,0,1-1.54,2.695,11.546,11.546,0,0,1-2.393.318A11.42,11.42,0,0,0,4795.042,51.532Zm3.378-.59a8.116,8.116,0,0,1-1.527,2.455,11.891,11.891,0,0,0,1.295-2.671c.138-.06.264-.12.377-.177C4798.52,50.68,4798.472,50.812,4798.42,50.942Zm.041-1.134a11.484,11.484,0,0,0,.258-3.849l.027-.013a8.121,8.121,0,0,1,.077,3.649C4798.746,49.646,4798.625,49.719,4798.461,49.808Zm-1.377-7.121a10.568,10.568,0,0,1-1.41.285,15.024,15.024,0,0,0-.758-2.1A8.122,8.122,0,0,1,4797.084,42.687Zm-3.23-2.332.034.014a13.923,13.923,0,0,1,1.065,2.676,11.88,11.88,0,0,1-2.923-.176l.621-2.888A8.128,8.128,0,0,1,4793.854,40.355Zm-5.6,1.307a13.257,13.257,0,0,1-1.194-.629c.207-.218.412-.42.611-.6a8.154,8.154,0,0,1,2.466-.615A15,15,0,0,0,4788.252,41.662Zm-2.747.111c-.253.332-.5.686-.734,1.063-.061-.061-.114-.114-.158-.161A8.133,8.133,0,0,1,4785.5,41.773Zm-2.436,6.13a11.66,11.66,0,0,0,.073,2.687,8.147,8.147,0,0,1-.442-3.035C4782.81,47.664,4782.931,47.779,4783.069,47.9Zm1.5,5.234c-.1-.225-.191-.472-.282-.74a15.373,15.373,0,0,0,1.62.815,10.756,10.756,0,0,0,.781,1.735A8.118,8.118,0,0,1,4784.57,53.137Zm3.345,2.4a8.89,8.89,0,0,1-1.11-1.967,20.91,20.91,0,0,0,2.069.641l-.331,1.539C4788.333,55.69,4788.123,55.619,4787.915,55.539Zm4.816-.771a13.048,13.048,0,0,0,2.3-.153,10.334,10.334,0,0,1-.761.709,8.175,8.175,0,0,1-3.169.755A10.6,10.6,0,0,0,4792.731,54.768Z" fill="#666"/>
      </g>
    </g>
    <path id="Path_4339" data-name="Path 4339" d="M4822.126,39.281c3.818,0,5.242,2.686,5.242,6.019a9.421,9.421,0,0,1-.841,3.656H4817.4c-.129,2.686,1.489,3.819,3.592,3.819a5.9,5.9,0,0,0,2.977-1.133l1.554,2.783a10.068,10.068,0,0,1-5.76,1.683c-3.883,0-6.569-2.589-6.569-6.86C4813.195,43.294,4817.855,39.281,4822.126,39.281Zm1.456,6.957a4.276,4.276,0,0,0,.162-1.2c0-1.294-.55-2.362-2.168-2.362-1.521,0-3.107,1.2-3.819,3.559Z" fill="#666"/>
  </g>
</svg>
