<?xml version="1.0" encoding="utf-8"?>
<!-- Generator: Adobe Illustrator 24.0.1, SVG Export Plug-In . SVG Version: 6.00 Build 0)  -->
<svg version="1.1" id="Layer_1" xmlns="http://www.w3.org/2000/svg" xmlns:xlink="http://www.w3.org/1999/xlink" x="0px" y="0px"
	 viewBox="0 0 24 24" style="enable-background:new 0 0 24 24;" xml:space="preserve">
<g id="Group_2778" transform="translate(-369.387 -625.791)">
	<g id="Group_2777" transform="translate(369.887 626.298)">
		<g id="Group_2776">
			<path id="Path_4355" d="M23.5,12.9c-0.2-1.2-1.1-2.2-2.4-2.4V9.8c0.1-1.9-1.3-3.5-3.2-3.6c-1.9-0.1-3.5,1.3-3.6,3.2
				c0,0.1,0,0.2,0,0.4l0,0l0,0v7.9c0.2,2.3-1.5,4.4-3.8,4.5c-2.3,0.2-4.4-1.5-4.5-3.8c0-0.2,0-0.5,0-0.7V17c0.6,0,1.2-0.4,1.2-1.6
				v-1c2.5-0.6,4.3-2.8,4.4-5.4V8.1h-0.8V2.9c0-1-0.7-1.8-1.6-2C8.8,0.3,8.2,0,7.5,0.2c-0.6,0.2-1,0.9-0.8,1.5s0.9,1,1.5,0.8
				C8.6,2.3,8.9,2.1,9,1.8C9.5,2,9.9,2.4,9.9,2.9v5.2H9.1v0.8c0,1.4-1,2.6-2.3,3c-0.7,0.2-1.5,0.2-2.2,0c-1.3-0.4-2.3-1.6-2.3-3V8.1
				H1.1V2.9c0-0.5,0.4-1,0.9-1.1c0.3,0.6,0.9,0.9,1.6,0.7c0.6-0.3,0.9-0.9,0.7-1.6C4,0.3,3.3,0,2.7,0.2C2.3,0.3,2.1,0.6,2,0.9
				c-1,0.2-1.6,1-1.7,2v5.2h-0.8v0.8c0.1,2.6,1.9,4.8,4.4,5.4v1c0,1.2,0.6,1.6,1.2,1.6v0.7C4.9,20.4,7,22.8,9.7,23
				c2.8,0.2,5.2-1.9,5.4-4.7c0-0.2,0-0.5,0-0.7V9.7C15,8.2,16.1,7,17.6,7c1.4-0.1,2.7,1,2.7,2.5c0,0.1,0,0.3,0,0.4v0.7
				c-1.5,0.2-2.6,1.6-2.4,3.2c0.2,1.5,1.6,2.6,3.2,2.4C22.6,15.9,23.7,14.4,23.5,12.9L23.5,12.9z M7.9,1.7c-0.2,0-0.4-0.2-0.4-0.4
				s0.2-0.4,0.4-0.4s0.4,0.2,0.4,0.4S8.1,1.7,7.9,1.7L7.9,1.7L7.9,1.7z M3.1,0.9c0.2,0,0.4,0.2,0.4,0.4S3.3,1.7,3.1,1.7
				S2.7,1.5,2.7,1.3l0,0C2.7,1.1,2.9,0.9,3.1,0.9L3.1,0.9L3.1,0.9z M0.3,8.9L0.3,8.9h1.2V9c0,1.7,1.2,3.2,2.8,3.8
				C5.2,13,6.1,13,7,12.7c1.7-0.5,2.8-2,2.9-3.8l0,0h0.8l0,0c-0.1,2.3-1.8,4.3-4.1,4.6c-0.6,0.1-1.1,0.1-1.7,0.1
				c-0.2,0-0.4-0.1-0.6-0.1C2.1,13.2,0.4,11.2,0.3,8.9L0.3,8.9z M5.1,16.1c-0.4,0-0.4-0.6-0.4-0.8v-0.8h0.1h0.1c0.2,0,0.4,0,0.6,0
				l0,0c0.2,0,0.4,0,0.6,0c0.1,0,0.1,0,0.1,0c0.1,0,0.1,0,0.1,0v0.8c0,0.2-0.1,0.8-0.4,0.8H5.1z M20.7,15.3c-1.1,0-2-0.9-2-2
				s0.9-2,2-2s2,0.9,2,2S21.8,15.3,20.7,15.3L20.7,15.3L20.7,15.3z"/>
		</g>
	</g>
</g>
</svg>
