<?xml version="1.0" encoding="utf-8"?>
<!-- Generator: Adobe Illustrator 24.0.1, SVG Export Plug-In . SVG Version: 6.00 Build 0)  -->
<svg version="1.1" id="Layer_1" xmlns="http://www.w3.org/2000/svg" xmlns:xlink="http://www.w3.org/1999/xlink" x="0px" y="0px"
	 viewBox="0 0 24 24" style="enable-background:new 0 0 24 24;" xml:space="preserve">
<path d="M20.6,17H19v-1.6c0-0.2-0.2-0.4-0.4-0.5h-1.4c-0.3,0-0.5,0.2-0.5,0.4v1.6h-1.6c-0.3,0-0.5,0.2-0.5,0.5v1.4
	c0,0.3,0.2,0.5,0.5,0.5h1.6v1.6c0,0.3,0.2,0.5,0.5,0.5h1.4c0.2,0,0.4-0.2,0.4-0.4v-1.6h1.6c0.2,0,0.4-0.2,0.4-0.4v-1.4
	C21.1,17.2,20.9,17,20.6,17z M20.4,18.6h-1.6c-0.3,0-0.5,0.2-0.5,0.5v1.6h-0.9v-1.6c0-0.2-0.2-0.4-0.4-0.5h-1.6v-0.9H17
	c0.2,0,0.4-0.2,0.4-0.4v-1.6h0.9v1.6c0,0.3,0.2,0.5,0.5,0.5h1.6V18.6z"/>
<path d="M18,12c-2,0-3.8,1-5,2.6l-0.3-0.1l-0.4-1c0.8-0.7,1.3-1.6,1.4-2.6c0.7-0.2,1.4-1,1.6-2.1c0.2-0.5,0-1.1-0.5-1.4
	c-0.1-0.1-0.3-0.1-0.4-0.1c0-0.2,0-0.4,0.1-0.6c0.1-0.6,0.1-1.2,0.1-1.4V4.8c0-1,0-2.2-1-3.3c-2-2-5.2-1.9-7.2,0.1L6.2,1.7v0.1
	C5.6,2.4,4.9,3.3,5,5.4C5.1,6,5.2,6.6,5.4,7.2c-0.1,0-0.2,0-0.3,0.1C4.6,7.6,4.4,8.2,4.5,8.7c0.3,1.1,0.9,2,1.6,2.1
	c0.1,1,0.6,2,1.4,2.6L7,14.3c-0.3,0.1-0.7,0.2-1.1,0.3c-2.5,0.7-5.8,1.6-5.8,4.7v3.2c0,0.8,0.4,1.5,1.1,1.5h16.5
	c3.4,0,6.1-2.7,6.1-6.1C23.8,14.7,21.4,12,18,12z M6.7,2.3c1.8-1.9,4.5-2,6.3-0.3l0.1,0.1C14,3,13.9,4,13.9,4.8c0,0.1,0,0.2,0,0.4
	c0,0.1,0,0.2,0,0.4C13.8,5,13.5,4.5,13.2,4V3.9c-0.1-0.2-0.3-0.2-0.5-0.2c-0.1,0-0.1,0.1-0.2,0.2c-0.6,1.3-1.1,1.2-2.1,1.1h-0.3
	C9.9,5,9.7,5.1,9.6,5.3c-0.1,0.3,0,0.6,0.3,0.9C9,6.1,8.7,5.5,8.5,4.8C8.4,4.4,8.2,3.9,7.7,3.9S6.8,4.1,6.4,4.5
	C6.1,4.9,5.8,5.4,5.7,5.9c0-0.2-0.1-0.4-0.1-0.6C5.6,3.5,6.2,2.9,6.7,2.3z M6.8,10.5c0-0.2-0.2-0.3-0.4-0.3c-0.5,0-1.1-0.8-1.3-1.6
	C5.1,8.2,5.2,8,5.3,8c0.2-0.1,0.3,0,0.4,0.1c0.1,0.1,0.4,0.1,0.5,0c0,0,0.1-0.1,0.1-0.2c0-0.1,0-0.1,0-0.2c0-0.5,0-2.1,0.6-2.8
	c0.2-0.2,0.4-0.3,0.7-0.3c0.1,0.2,0.1,0.3,0.2,0.5C8.1,5.9,8.6,7.3,10.7,7C10.9,7,11,6.8,11,6.6c0-0.1,0-0.2-0.1-0.2
	c-0.2-0.2-0.3-0.3-0.5-0.5c0.8,0.1,1.7,0.1,2.4-1c0.4,1,0.7,2.1,0.7,3.2c0,0.2,0.2,0.3,0.4,0.3c0.1,0,0.2-0.1,0.3-0.2
	c0.1-0.1,0.2-0.1,0.3-0.1c0.2,0.2,0.2,0.4,0.2,0.6c-0.2,0.8-0.7,1.6-1.3,1.6c-0.1,0-0.1,0-0.2,0.1c-0.1,0.1-0.2,0.2-0.2,0.3
	c0,1-0.5,1.9-1.4,2.5c-0.5,0.3-1.1,0.5-1.7,0.4c-0.6,0-1.2-0.1-1.7-0.4C7.4,12.5,6.9,11.5,6.8,10.5z M7.5,15.1
	C7.6,15,7.6,15,7.7,14.9l0.5-1c0.6,0.2,1.1,0.4,1.8,0.4c0.6,0,1.2-0.1,1.7-0.3l0.4,1c0,0.1,0.1,0.2,0.2,0.2l0.3,0.1
	c-0.2,0.3-0.3,0.7-0.4,1c-1,1.2-2.8,1.3-4,0.3c-0.1-0.1-0.1-0.1-0.2-0.2c-0.3-0.3-0.5-0.8-0.7-1.2L7.5,15.1z M1.4,23.4
	C1.2,23.4,1,23,1,22.6v-3.2c0-2.5,2.9-3.3,5.3-4l0.3-0.1c0.4,1.5,1.8,2.6,3.4,2.6c0.7,0,1.3-0.2,1.9-0.5c-0.3,2.5,1,4.9,3.2,6H1.4z
	 M17.9,23.3c-2.9,0-5.2-2.3-5.2-5.2s2.3-5.2,5.2-5.2S23,15.1,23,18S20.6,23.3,17.9,23.3z"/>
</svg>
