<svg xmlns="http://www.w3.org/2000/svg" width="24" height="24" viewBox="0 0 24 24">
    <path d="M20.3,4.4H16.7a.43.43,0,0,1-.4-.4V.4a.52.52,0,0,1,.2-.4.749.749,0,0,1,.5.1l3.6,3.6a.6.6,0,0,1,.1.4A.536.536,0,0,1,20.3,4.4Zm-3.2-.8h2.2L17.1,1.4Z"/>
    <path d="M20.3,24H4.3a.43.43,0,0,1-.4-.4V.4A.43.43,0,0,1,4.3,0H16.7a.367.367,0,0,1,.3.1l3.6,3.6a.367.367,0,0,1,.1.3V23.6A.43.43,0,0,1,20.3,24ZM4.7,23.2H19.9V4.2L16.5.8H4.7Z"/>
    <path d="M20.3,24H4.3a.43.43,0,0,1-.4-.4V16.4a.43.43,0,0,1,.4-.4h16a.43.43,0,0,1,.4.4v7.2A.43.43,0,0,1,20.3,24ZM4.7,23.2H19.9V16.8H4.7Z"/>
    <path d="M6.7,22.4a.43.43,0,0,1-.4-.4V18a.4.4,0,0,1,.8,0v4A.43.43,0,0,1,6.7,22.4Z"/>
    <path d="M17.9,18.4H15.5a.4.4,0,0,1,0-.8h2.4a.4.4,0,0,1,0,.8Z"/>
    <path d="M17.9,20.4H15.5a.4.4,0,0,1,0-.8h2.4a.4.4,0,0,1,0,.8Z"/>
    <path d="M15.5,22.4a.43.43,0,0,1-.4-.4V18a.4.4,0,0,1,.8,0v4A.43.43,0,0,1,15.5,22.4Z"/>
    <path d="M17,10.4c-.2-.3-.5-.4-1.2-.4a6.151,6.151,0,0,0-1.3.1,13.072,13.072,0,0,1-2-3A4.253,4.253,0,0,0,12.7,6a2.879,2.879,0,0,0,.1-1.3.52.52,0,0,0-.2-.4c-.2-.1-.3-.3-.5-.3a.6.6,0,0,0-.4.1,1.205,1.205,0,0,0-.5.5,3.607,3.607,0,0,0,.5,2.6,23.513,23.513,0,0,1-1.5,4.2c-1.5.7-2.3,1.4-2.4,2a1.023,1.023,0,0,0,.4.9c.1.1.2.1.4.1.3,0,.7-.3,1.1-.8a19.413,19.413,0,0,0,1-1.7,15.725,15.725,0,0,1,3.5-1.1,2.592,2.592,0,0,0,1.7.9,1.05,1.05,0,0,0,.9-.5A.676.676,0,0,0,17,10.4ZM8.7,13.7c-.2-.1-.2-.2-.2-.3,0-.2.4-.6,1.2-1.1C9.1,13.6,8.8,13.7,8.7,13.7Zm3.3-9s.4.4,0,1.3A.965.965,0,0,1,12,4.7ZM11.2,11c.4-1,.8-2,1.1-3a12.127,12.127,0,0,0,1.5,2.2A19.752,19.752,0,0,0,11.2,11Zm5.1-.2c-.1.2-.4.2-.5.2-.2,0-.3-.1-.6-.4h.7c.4,0,.4.1.5.1Z"/>
    <path d="M7.9,20.8H6.7a.43.43,0,0,1-.4-.4V18a.43.43,0,0,1,.4-.4H7.9a1.6,1.6,0,1,1,0,3.2ZM7.1,20h.8a.8.8,0,1,0,0-1.6H7.1Z"/>
    <path d="M11.5,22.4h-.4a.43.43,0,0,1-.4-.4V18a.43.43,0,0,1,.4-.4h.4a2.4,2.4,0,0,1,0,4.8Zm0-4v3.2a1.6,1.6,0,0,0,0-3.2Z"/>
</svg>