<svg xmlns="http://www.w3.org/2000/svg" width="24" height="24.1" viewBox="0 0 24 24.1">
    <path d="M15.8,18.5H8.2a.5.5,0,0,0,0,1h7.6a.472.472,0,0,0,.5-.5C16.4,18.8,16.1,18.5,15.8,18.5Z"/>
    <path d="M12.5,20.7H7.1a.5.5,0,0,0,0,1h5.5a.472.472,0,0,0,.5-.5A.648.648,0,0,0,12.5,20.7Z"/>
    <path d="M20.7,12a1.1,1.1,0,1,0,1.1,1.1A1.11,1.11,0,0,0,20.7,12Z"/>
    <path d="M21.8,9.8H20.7V6a.472.472,0,0,0-.5-.5h-.5V4.9a.758.758,0,0,0-.2-.4L15.1.1c-.1,0-.2-.1-.4-.1H6.5A2.135,2.135,0,0,0,4.4,2.2V5.5H3.8a.472.472,0,0,0-.5.5V9.8H2.2A2.22,2.22,0,0,0,0,12v5.5a2.22,2.22,0,0,0,2.2,2.2h.9l-.8,1.7a1.884,1.884,0,0,0-.2.8A1.967,1.967,0,0,0,4,24.1H19.8a1.967,1.967,0,0,0,1.9-1.9,2.353,2.353,0,0,0-.2-.8l-.8-1.7h.9a2.22,2.22,0,0,0,2.2-2.2V12A1.944,1.944,0,0,0,21.8,9.8ZM15.3,1.9l2.5,2.5H16.4a1.11,1.11,0,0,1-1.1-1.1V1.9Zm-9.8.3A1.11,1.11,0,0,1,6.6,1.1h7.6V3.3a2.22,2.22,0,0,0,2.2,2.2h2.2V9.9H5.5ZM19.9,22.9H4.1a.86.86,0,0,1-.8-.8.367.367,0,0,1,.1-.3l1.9-4.3H18.8l1.9,4.3c0,.1.1.2.1.3A.961.961,0,0,1,19.9,22.9Zm3-5.4a1.11,1.11,0,0,1-1.1,1.1H20.4l-.5-1.1h.3a.5.5,0,0,0,0-1H3.8a.5.5,0,0,0,0,1h.3l-.5,1.1H2.2a1.11,1.11,0,0,1-1.1-1.1V12a1.11,1.11,0,0,1,1.1-1.1H21.8A1.11,1.11,0,0,1,22.9,12v5.5Z"/>
</svg>