<?xml version="1.0" encoding="utf-8"?>
<!-- Generator: Adobe Illustrator 24.0.1, SVG Export Plug-In . SVG Version: 6.00 Build 0)  -->
<svg version="1.1" id="Layer_1" xmlns="http://www.w3.org/2000/svg" xmlns:xlink="http://www.w3.org/1999/xlink" x="0px" y="0px"
	 viewBox="0 0 24 24" style="enable-background:new 0 0 24 24;" xml:space="preserve">
<g id="Layer_2_1_">
	<g id="Layer_1-2">
		<path d="M23.5,11.6h-2c0.7-1.4,0.8-3,0.4-4.5c-0.7-2.3-2.8-3.9-5.2-3.9c-0.8,0-1.5,0.1-2.2,0.4c-0.9,0.3-1.8,0.7-2.6,1.3
			c-0.8-0.5-1.7-1-2.6-1.3c-0.5-0.2-1.2-0.4-2-0.4c-2.4,0-4.5,1.6-5.1,3.9C1.8,8.8,2,10.5,2.8,12H0.4C0.2,12,0,12.2,0,12.4
			s0.2,0.4,0.4,0.4h2.9c0.1,0.2,0.3,0.4,0.4,0.6c2.4,3.4,7.5,7.1,8.5,7.4l0,0l0,0h0.1l0,0c0.8-0.4,5.7-3.6,8.4-7.4
			c0.2-0.3,0.4-0.7,0.6-1h2.4c0.2,0,0.4-0.2,0.4-0.4l0,0C23.9,11.8,23.7,11.6,23.5,11.6L23.5,11.6z M19.8,13c-2.4,3.5-6.9,6.4-7.8,7
			c-1-0.6-5.4-3.5-7.8-7l-0.1-0.2h3.4c0.1,0,0.3-0.1,0.3-0.2l1.5-3l2.4,6.1c0.1,0.1,0.2,0.2,0.3,0.2l0,0c0.2,0,0.3-0.1,0.3-0.3
			l2.1-7.2l1.1,3.6c0,0.1,0.2,0.2,0.3,0.3c0.1,0,0.3,0,0.4-0.2l0.9-1.3l0.8,1.3c0.1,0.1,0.2,0.2,0.3,0.2h2.1
			C20.1,12.6,20,12.8,19.8,13z M20.7,11.6h-2.2l-1-1.6c-0.1-0.1-0.2-0.2-0.3-0.2s-0.3,0.1-0.3,0.2l-0.8,1.1L14.8,7
			c-0.1-0.2-0.2-0.3-0.4-0.3S14.1,6.8,14,7l-2,7.3L9.8,8.5c0-0.1-0.2-0.2-0.3-0.2S9.2,8.4,9.2,8.5L7.3,12H3.7
			c-0.9-1.7-1.2-3.3-0.8-4.7C3.5,5.3,5.3,4,7.3,4c0.7,0,1.3,0.1,2,0.4c0.9,0.3,1.8,0.8,2.6,1.3c0.1,0.1,0.3,0.1,0.5,0
			c0.8-0.6,1.7-1,2.6-1.3C15.6,4.2,16.3,4,17,4c2,0,3.8,1.4,4.4,3.4C21.6,8.8,21.4,10.3,20.7,11.6z"/>
	</g>
</g>
</svg>
