<svg xmlns="http://www.w3.org/2000/svg" width="24" height="24.108" viewBox="0 0 24 24.108">
    <g transform="translate(0 0.008)">
        <g transform="translate(12207 -2858)">
            <g transform="translate(-12207 2858)">
                <path d="M20.7,4.6V22.8a1.324,1.324,0,0,1-1.3,1.3H4.4a1.324,1.324,0,0,1-1.3-1.3h0V4.6A1.324,1.324,0,0,1,4.4,3.3H6V4.9H4.9V22.3H19.1V4.9H18V3.3h1.4a1.261,1.261,0,0,1,1.3,1.3Z"/><path d="M15.7,2.1H14.4A2.365,2.365,0,0,0,11.8,0h0A2.344,2.344,0,0,0,9.7,2.1H8.3a.684.684,0,0,0-.7.7V7a.684.684,0,0,0,.7.7h7.4a.684.684,0,0,0,.7-.7h0V2.8A.684.684,0,0,0,15.7,2.1ZM12.8,3.3a1.116,1.116,0,0,1-1.6-.1h0a1.136,1.136,0,0,1-.3-.8V2.1a1.235,1.235,0,0,1,1.4-.9h0a1.352,1.352,0,0,1,.9.9v.3A1.489,1.489,0,0,1,12.8,3.3Z"/></g><g transform="translate(-12203.646 2867.948)"><path d="M7.2,9.2c-.1,0-.1,0-.1-.1L6.1,8,4,5.9c-.1,0-.1-.1,0-.2l.9-.9c.1-.1.1,0,.2,0l2,2c.1.1.1.1.2,0L12.1,2a.188.188,0,0,1,.3,0l.9.9c.1.1.1.1,0,.2L9.9,6.5,7.2,9.2Z"/>
            </g>
        </g>
    </g>
</svg>