<svg xmlns="http://www.w3.org/2000/svg" viewBox="0 0 182.41 25"><defs><style>.cls-1{fill:#666;}</style></defs><title>logo</title><g id="Layer_2" data-name="Layer 2"><g id="Layer_1-2" data-name="Layer 1"><path class="cls-1" d="M135.26,23.4a16.8,16.8,0,0,1-6.91.87c-6.55-.7-8.83-5.35-8.28-10.75A12.63,12.63,0,0,1,131.34,2.14c2.39-.31,5.27,0,6.78.8L136.87,6.7a10.12,10.12,0,0,0-6.57-.29c-2.21.67-5.18,3.18-5.27,7.88-.13,4.49,2.64,6.4,6.68,6.05a10.15,10.15,0,0,0,3.17-.67Z"/><path class="cls-1" d="M158.27,8.31h4L162,11.52h.1a7.24,7.24,0,0,1,3.08-3.15A5.25,5.25,0,0,1,168,8l-.9,4.49a4.52,4.52,0,0,0-2.47.33,5,5,0,0,0-2.42,2.75c-.8,1.9-1.85,8.44-1.85,8.44H155.7S158.25,9.68,158.27,8.31Z"/><path class="cls-1" d="M11.13,2.16c4.26,0,7.41,1.53,7.41,5.55A7.5,7.5,0,0,1,13,15.25l3.35,8.58H11.6L8.81,15.89H6.15L4.59,23.83H0L4.35,2.16Zm-2,10.1c3.23,0,4.89-1.53,4.89-3.89,0-1.82-1.3-2.59-3.62-2.59H8.14L6.88,12.26Z"/><path class="cls-1" d="M27.72,7c3.92,0,5.38,2.75,5.38,6.18a9.8,9.8,0,0,1-.86,3.75H22.86c-.13,2.76,1.53,3.92,3.69,3.92a6,6,0,0,0,3.06-1.16l1.6,2.86a10.35,10.35,0,0,1-5.92,1.73c-4,0-6.75-2.66-6.75-7C18.54,11.07,23.33,7,27.72,7Zm1.49,7.14a4.34,4.34,0,0,0,.17-1.23c0-1.33-.57-2.42-2.23-2.42S24,11.66,23.23,14.09Z"/><path class="cls-1" d="M43.33,7a4,4,0,0,1,3.59,2.16H47l.73-1.77h3.62L48.05,23.83H44.36l.07-2.16h-.1a7.63,7.63,0,0,1-5.15,2.56c-2.9,0-4.66-2.16-4.66-6.05C34.52,11.9,38.78,7,43.33,7Zm1.36,11.13,1.17-5.85a2.52,2.52,0,0,0-2.2-1.56c-2.29,0-4.42,3-4.42,6.94,0,2,.73,2.89,1.93,2.89A4.09,4.09,0,0,0,44.69,18.08Z"/><path class="cls-1" d="M61.44,7a5.65,5.65,0,0,1,4.42,2l-2.52,2.69a2.82,2.82,0,0,0-2.19-1.06c-2.63,0-4.76,3.06-4.76,6.75,0,2,.93,3.22,2.79,3.22a4.22,4.22,0,0,0,2.63-1.06L63.7,22.3a8.68,8.68,0,0,1-5.51,1.93c-3.66,0-6.45-2.5-6.45-6.78C51.74,11.73,56,7,61.44,7Z"/><path class="cls-1" d="M69.42,10.9h-2.2l.67-3.36,2.42-.2L71.71,3h3.82L74.7,7.34h3.76l-.7,3.56H73.9L72.47,18a7,7,0,0,0-.06,1.1c0,1.06.53,1.59,1.69,1.59a3.4,3.4,0,0,0,1.37-.36l.79,3.19a10.56,10.56,0,0,1-3.85.73c-3.33,0-4.69-1.83-4.69-4.36A10.79,10.79,0,0,1,68,17.78Z"/><path class="cls-1" d="M81.55,7.34h4.52L82.78,23.83H78.22Zm.66-4.65A2.77,2.77,0,0,1,85,0,2.25,2.25,0,0,1,87.5,2.19a2.7,2.7,0,0,1-2.83,2.7A2.26,2.26,0,0,1,82.21,2.69Z"/><path class="cls-1" d="M88.37,7.34h4.52l.56,8.08c.14,1.63.17,3.32.2,5h.14c.73-1.7,1.42-3.33,2.19-5l3.69-8.08h4.45L95.71,23.83H90.46Z"/><path class="cls-1" d="M112.45,7c3.92,0,5.39,2.75,5.39,6.18a9.58,9.58,0,0,1-.87,3.75H107.6c-.13,2.76,1.53,3.92,3.69,3.92a6,6,0,0,0,3.06-1.16l1.59,2.86A10.34,10.34,0,0,1,110,24.23c-4,0-6.75-2.66-6.75-7C103.28,11.07,108.07,7,112.45,7Zm1.5,7.14a4.37,4.37,0,0,0,.16-1.23c0-1.33-.56-2.42-2.22-2.42s-3.19,1.22-3.92,3.65Z"/><path class="cls-1" d="M154.53,18.06a8.92,8.92,0,0,0-.18-4.48v0A9.06,9.06,0,0,0,153.08,11a.73.73,0,0,0-.14-.2A8.87,8.87,0,0,0,149.29,8h0l-.11,0a8.84,8.84,0,0,0-1.65-.47h0a9.2,9.2,0,0,0-1.15-.13h0a8.92,8.92,0,0,0-3.9.7h0a8.65,8.65,0,0,0-1.37.75l0,0a8.89,8.89,0,0,0-2.06,1.91s0,0,0,0a8.75,8.75,0,0,0-1.76,4.15v0a8.87,8.87,0,0,0,.52,4.46l0,.05a8.72,8.72,0,0,0,1.4,2.37h0a8.85,8.85,0,0,0,3.55,2.58h0a7.8,7.8,0,0,0,1.13.36h0a8.82,8.82,0,0,0,5.81-.57l.07,0a8.86,8.86,0,0,0,2.7-2l0,0a8.8,8.8,0,0,0,1.73-2.74,9,9,0,0,0,.4-1.31S154.52,18.07,154.53,18.06Zm-9.71,6.17-.56-.09.34-1.55a17,17,0,0,0,2.17.34,8.72,8.72,0,0,1-1.93,1.29Zm-6-7.57a13,13,0,0,0,1.54,1,11.41,11.41,0,0,0,.36,2.89,12.6,12.6,0,0,1-1.64-.93A11.13,11.13,0,0,1,138.78,16.66Zm-.47-3.52a8,8,0,0,1,.91-1.68l.23.22a11,11,0,0,0-1.22,3.48s0,.07,0,.1a4.23,4.23,0,0,1-.38-.42A7.56,7.56,0,0,1,138.31,13.14Zm.61,2.13A10.27,10.27,0,0,1,140,12.15a10.75,10.75,0,0,0,1.29.91,11,11,0,0,0-.79,2.6c-.07.42-.11.82-.14,1.21a11.42,11.42,0,0,1-1.51-1C138.86,15.65,138.89,15.46,138.92,15.27Zm2.7-5.49a11.84,11.84,0,0,0,1.22.66,13.06,13.06,0,0,0-1.26,2,11.06,11.06,0,0,1-1.24-.88A12.75,12.75,0,0,1,141.62,9.78ZM147,8.07l-.61,2.87a16.36,16.36,0,0,1-2.41-.76A14,14,0,0,1,146.36,8C146.57,8,146.79,8,147,8.07Zm-3.19,2.8a18.06,18.06,0,0,0,2.42.76h0l-.54,2.5a15.4,15.4,0,0,1-3.5-1.36,12.22,12.22,0,0,1,1.31-2Zm-2.63,4.91a9.9,9.9,0,0,1,.71-2.37,13.68,13.68,0,0,0,1.57.73,17.12,17.12,0,0,0,2.09.68l-.81,3.77A18.13,18.13,0,0,1,141,17.23,12.75,12.75,0,0,1,141.18,15.78Zm5.06-.81a12.17,12.17,0,0,0,4.27.18,9.92,9.92,0,0,1-.43,2.69,11.89,11.89,0,0,1-.47,1.24,14.22,14.22,0,0,1-4.19-.33Zm4.51,3.08a10.88,10.88,0,0,0,.47-3,10.89,10.89,0,0,0,1.87-.56,10.53,10.53,0,0,1-.42,3.91v0a10,10,0,0,1-2.26.58C150.53,18.69,150.65,18.38,150.75,18.05Zm1.76-6.53a13.92,13.92,0,0,1,.5,2.23,9.57,9.57,0,0,1-1.79.56,14,14,0,0,0-.33-2.44A10.12,10.12,0,0,0,152.51,11.52Zm-2,2.92a11.79,11.79,0,0,1-4.13-.15l.54-2.52a12.83,12.83,0,0,0,3.25.18A12.68,12.68,0,0,1,150.51,14.44ZM141,18c.33.16.68.31,1.06.46a19.37,19.37,0,0,0,2.5.81l-.53,2.47a18.27,18.27,0,0,1-2.53-.84A10.78,10.78,0,0,1,141,18Zm3.71,3.9.53-2.47a15.56,15.56,0,0,0,4,.37,10.79,10.79,0,0,1-1.79,2.47A16.12,16.12,0,0,1,144.74,21.91Zm5.34-2.16a11.59,11.59,0,0,0,2.28-.48,10.76,10.76,0,0,1-1.54,2.7,11.3,11.3,0,0,1-2.39.31A11,11,0,0,0,150.08,19.75Zm3.38-.59a8,8,0,0,1-1.53,2.45,11.65,11.65,0,0,0,1.3-2.67l.38-.17Zm0-1.13a11.66,11.66,0,0,0,.26-3.85l0,0a8.17,8.17,0,0,1,.07,3.65A3.18,3.18,0,0,1,153.5,18Zm-1.38-7.12a11.16,11.16,0,0,1-1.4.28,15.48,15.48,0,0,0-.76-2.1A7.78,7.78,0,0,1,152.12,10.91Zm-3.23-2.34,0,0A13.73,13.73,0,0,1,150,11.26a12,12,0,0,1-2.92-.17l.62-2.89A7.24,7.24,0,0,1,148.89,8.57Zm-5.6,1.31a11.72,11.72,0,0,1-1.19-.63c.21-.22.41-.42.61-.6A8.3,8.3,0,0,1,145.18,8,14.44,14.44,0,0,0,143.29,9.88Zm-2.74.11c-.26.33-.5.69-.74,1.06l-.16-.16A9.56,9.56,0,0,1,140.55,10Zm-2.44,6.13a11.82,11.82,0,0,0,.07,2.69,8.22,8.22,0,0,1-.44-3C137.85,15.88,138,16,138.11,16.12Zm1.5,5.23c-.09-.22-.19-.47-.28-.74a14.31,14.31,0,0,0,1.62.82,10.36,10.36,0,0,0,.78,1.74A8.27,8.27,0,0,1,139.61,21.35ZM143,23.76a8.94,8.94,0,0,1-1.11-2,19.65,19.65,0,0,0,2.07.64L143.58,24A6.45,6.45,0,0,1,143,23.76Zm4.81-.77a13.46,13.46,0,0,0,2.3-.16,9.6,9.6,0,0,1-.76.71,8.24,8.24,0,0,1-3.17.76A11.07,11.07,0,0,0,147.77,23Z"/><path class="cls-1" d="M177.17,7.5c3.82,0,5.24,2.68,5.24,6a9.36,9.36,0,0,1-.84,3.65h-9.13C172.31,19.86,173.93,21,176,21a5.9,5.9,0,0,0,3-1.13l1.55,2.78a10,10,0,0,1-5.76,1.69c-3.88,0-6.56-2.59-6.56-6.86C168.24,11.51,172.9,7.5,177.17,7.5Zm1.45,7a4.25,4.25,0,0,0,.16-1.2c0-1.3-.55-2.36-2.16-2.36s-3.11,1.19-3.82,3.56Z"/></g></g></svg>