<svg xmlns="http://www.w3.org/2000/svg" width="24" height="24.1" viewBox="0 0 24 24.1">
    <path d="M14.2,24c-.3,0-.7-.1-1-.1-1.3-.2-2.4-.6-3.6-.9-.8-.2-1.5-.5-2.3-.7-.2,0-.4-.1-.6-.1H2.8A1.85,1.85,0,0,1,.9,20.7V11.2A1.784,1.784,0,0,1,2.8,9.3H6.4c.2,0,.3,0,.4-.2.5-.5.9-1,1.4-1.6a21.183,21.183,0,0,0,2-2.4,3.36,3.36,0,0,0,.5-1.4,13.322,13.322,0,0,1,.5-1.9A2.223,2.223,0,0,1,12,.5,2.456,2.456,0,0,1,13.5,0a3.845,3.845,0,0,1,2.1.5A3.351,3.351,0,0,1,17.4,3a6.189,6.189,0,0,1-.5,4.2.31.31,0,0,1-.1.2h2.6A3.731,3.731,0,0,1,23,10.3a4.216,4.216,0,0,1-.5,2.9.6.6,0,0,0-.1.4,4.293,4.293,0,0,1-.4,2.7c0,.1,0,.2,0,.4a4.078,4.078,0,0,1-.7,2.8.6.6,0,0,0-.1.4,4.3,4.3,0,0,1-1.1,2.8A4.077,4.077,0,0,1,17.4,24a.367.367,0,0,0-.3.1Zm6-11a2.181,2.181,0,0,0,.5-.4,2.389,2.389,0,0,0,.5-1.4,1.837,1.837,0,0,0-1.9-1.9H14.2a.749.749,0,0,1,.1-.5,11.919,11.919,0,0,1,.8-2,5.078,5.078,0,0,0,.5-3.2c-.2-.8-.5-1.4-1.3-1.6a1.7,1.7,0,0,0-.7-.1c-.1,0-.2.1-.3.1a5.9,5.9,0,0,0-.4.8c-.1.5-.2,1-.3,1.4a5.58,5.58,0,0,1-.9,2.1c-.7.8-1.3,1.6-2,2.4C9.1,9.4,8.6,10,8,10.6a2.106,2.106,0,0,1-1.3.5H6.5v9.3h.6a9.766,9.766,0,0,1,2.3.6,17.28,17.28,0,0,0,5.1,1.2c1,0,2,0,3-.1a1.936,1.936,0,0,0,1.8-1.8,4.819,4.819,0,0,0,0-1.2c0-.1,0-.2.1-.2a2.221,2.221,0,0,0,.7-2.6c-.1-.1,0-.2.1-.3a2.075,2.075,0,0,0,.6-1,3.606,3.606,0,0,0-.6-2ZM3.7,20.3a.9.9,0,1,0-.9-.9h0A.9.9,0,0,0,3.7,20.3Z"/>
</svg>